<svg xmlns="http://www.w3.org/2000/svg" width="326.15" height="237.415" viewBox="0 0 326.15 237.415">
  <g id="Group_356" data-name="Group 356" transform="translate(-2770 -6133)">
    <g id="undraw_Security_on_re_e491" transform="translate(2770 6133)">
      <path id="Path_130" data-name="Path 130" d="M910.032,675.666c3.064,5.416.466,23.709.466,23.709s-17.014-7.2-20.078-12.616a11.266,11.266,0,0,1,19.612-11.093Z" transform="translate(-614.238 -463.263)" fill="#f1f1f1"/>
      <path id="Path_131" data-name="Path 131" d="M918.36,701.156l-.361.076c-3.481-16.54-15.639-27.756-15.761-27.867l.249-.273C902.609,673.2,914.853,684.5,918.36,701.156Z" transform="translate(-621.854 -465.068)" fill="#fff"/>
      <path id="Path_132" data-name="Path 132" d="M964.335,666.727c-4.158,7.542-27.6,17.76-27.6,17.76s-3.865-25.277.291-32.817a15.592,15.592,0,1,1,27.308,15.057Z" transform="translate(-640.701 -448.157)" fill="#f1f1f1"/>
      <path id="Path_133" data-name="Path 133" d="M938.943,687.429l-.352-.371c16.963-16.109,21.354-38.577,21.4-38.8l.5.095C960.447,648.577,956.029,671.2,938.943,687.429Z" transform="translate(-642.702 -450.825)" fill="#fff"/>
      <path id="Path_134" data-name="Path 134" d="M272.6,331.134a32.071,32.071,0,0,1-7.95-1.028l-.512-.142-.475-.238a131.7,131.7,0,0,1-43.039-33.785,127.9,127.9,0,0,1-21.731-38.588,148.52,148.52,0,0,1-8.4-52.319c.007-.374.013-.662.013-.861,0-8.654,4.8-16.247,12.237-19.344,5.69-2.371,57.348-23.589,61.081-25.122,7.029-3.522,14.528-.582,15.728-.068,2.692,1.1,50.447,20.633,60.767,25.547,10.636,5.065,13.473,14.163,13.473,18.741,0,20.724-3.589,40.092-10.668,57.567A133.3,133.3,0,0,1,319.168,300.1c-19.555,22.006-39.115,29.807-39.3,29.876a21.372,21.372,0,0,1-7.269,1.161ZM268,319.74c1.7.38,5.6.951,8.145.022,3.233-1.179,19.6-9.668,34.9-26.885C332.18,269.09,342.905,239.189,342.921,204c-.038-.713-.544-5.8-7.277-9-10.12-4.819-59.757-25.116-60.258-25.32l-.137-.058c-1.04-.436-4.351-1.354-6.633-.158l-.457.213c-.553.227-55.39,22.75-61.238,25.186-4.091,1.7-5.549,5.928-5.549,9.311,0,.247-.006.607-.015,1.072-.467,24.076,5.1,83.32,66.639,114.5Z" transform="translate(-190.459 -157.999)" fill="#ff8600"/>
      <path id="Path_135" data-name="Path 135" d="M273.393,171.962s-55.335,22.727-61.264,25.2-8.893,8.4-8.893,14.328-4.446,83.291,70.157,120.695c0,0,6.771,1.873,11.908,0s70.353-33.493,70.353-120.942c0,0,0-8.893-10.375-13.834s-60.538-25.444-60.538-25.444S278.58,169.245,273.393,171.962Z" transform="translate(-197.758 -165.314)" fill="#ff8300"/>
      <path id="Path_136" data-name="Path 136" d="M307.285,215.286v121.24S251.456,309.652,251.95,239Z" transform="translate(-225.721 -190.852)" opacity="0.1"/>
      <path id="Path_137" data-name="Path 137" d="M169.019,194.2l-17.784-22.867,10.342-8.044L170,174.118l28.447-30.03,9.513,9.013Z" transform="translate(-91.843 -86.237)" fill="#fff"/>
      <path id="Path_138" data-name="Path 138" d="M789.472,740.853H626.966a.427.427,0,1,1,0-.853H789.472a.427.427,0,0,1,0,.853Z" transform="translate(-463.748 -503.438)" fill="#cacaca"/>
      <path id="Path_139" data-name="Path 139" d="M547.2,534.027h6.6l3.138-25.443H547.2Z" transform="translate(-329.754 -303.335)" fill="#ffb8b8"/>
      <path id="Path_140" data-name="Path 140" d="M733.725,721.187h12.991A8.279,8.279,0,0,1,755,729.465v.27h-21.27Z" transform="translate(-518.399 -492.649)" fill="#2f2e41"/>
      <path id="Path_141" data-name="Path 141" d="M599.2,534.027h6.6l3.138-25.443H599.2Z" transform="translate(-361.09 -303.335)" fill="#ffb8b8"/>
      <path id="Path_142" data-name="Path 142" d="M785.725,721.187h12.991A8.279,8.279,0,0,1,807,729.465v.27h-21.27Z" transform="translate(-549.789 -492.649)" fill="#2f2e41"/>
      <path id="Path_143" data-name="Path 143" d="M540.72,349.952l1.582,80.719-12.8-.794-8.88-51.414-2.8-35.056Z" transform="translate(-312.731 -208.611)" fill="#2f2e41"/>
      <path id="Path_144" data-name="Path 144" d="M753.153,459.205l1.794,95.554-14.928-.427-3.225-56.8-5.609-20.566-22.9-10.75,3.739-25.707,33.653-.467Z" transform="translate(-504.352 -331.419)" fill="#2f2e41"/>
      <circle id="Ellipse_62" data-name="Ellipse 62" cx="11.447" cy="11.447" r="11.447" transform="translate(212.303 31.032)" fill="#ffb8b8"/>
      <path id="Path_145" data-name="Path 145" d="M555.244,137.738,557,140.394l4.674,13.087-3.739,50.947-21.968.468-2.8-58.426,5.874-7.343Z" transform="translate(-322.201 -82.759)" fill="#ccc"/>
      <path id="Path_146" data-name="Path 146" d="M687.721,318.871l-3.739-.467s-.935.467-1.4,3.739-6.076,32.251-6.076,32.251l7.478,35.523,8.413-11.218-5.141-19.631,5.141-19.631Z" transform="translate(-483.621 -254.485)" fill="#2f2e41"/>
      <path id="Path_147" data-name="Path 147" d="M616.573,160.4h2.8l7.011,37.859-6.544,29.446-6.544-10.75,1.87-11.685-.935-10.283-3.272-6.077Z" transform="translate(-368.481 -96.382)" fill="#2f2e41"/>
      <path id="Path_148" data-name="Path 148" d="M741.715,233.741l-2.081-.52s-1.561-8.846-5.2-7.8-13.008,2.081-13.008-2.081,8.845-7.8,14.049-7.285S747.319,218.3,749,225.936c2.693,12.247-5.556,15.34-5.556,15.34l.137-.446a6.945,6.945,0,0,0-1.866-7.089Z" transform="translate(-511.314 -191.262)" fill="#2f2e41"/>
      <path id="Path_149" data-name="Path 149" d="M695.132,304.891l14.957-6.076,3.505-2.571,10.517,46.506,4.908-47.909,19.4,10.049-6.544,31.783-.935,12.152,2.8,9.815s9.815,7.011,6.544,14.489-7.011,7.946-7.011,7.946-15.892-14.957-16.826-18.7-2.337-10.283-2.337-10.283-7.946,29.914-17.294,29.446-9.348-10.283-9.348-10.283l2.337-10.283,3.739-10.75-1.87-17.761Z" transform="translate(-496.895 -240.672)" fill="#2f2e41"/>
    </g>
  </g>
</svg>
